<?xml version="1.0" encoding="UTF-8" standalone="no"?>
<!DOCTYPE svg PUBLIC "-//W3C//DTD SVG 1.1//EN" "http://www.w3.org/Graphics/SVG/1.1/DTD/svg11.dtd">
<svg width="100%" height="100%" viewBox="0 0 128 128" version="1.1" xmlns="http://www.w3.org/2000/svg" xmlns:xlink="http://www.w3.org/1999/xlink" xml:space="preserve" xmlns:serif="http://www.serif.com/" style="fill-rule:evenodd;clip-rule:evenodd;stroke-linejoin:round;stroke-miterlimit:2;">
    <g id="_0" serif:id="0" transform="matrix(1,0,0,1,0,-2.69363e-05)">
        <g id="_2" serif:id="2">
        </g>
        <g id="_3" serif:id="3">
        </g>
        <g id="_4" serif:id="4">
        </g>
        <g id="_5" serif:id="5">
        </g>
        <g id="_6" serif:id="6" transform="matrix(1,0,0,1,-383.984,511.984)">
            <path id="v" d="M439.888,-511.967C428.155,-510.494 417.385,-505.904 408.482,-498.995C407.972,-498.601 407.674,-497.993 407.674,-497.349C407.674,-496.795 407.894,-496.264 408.287,-495.874L438.685,-465.475C439.075,-465.09 439.601,-464.874 440.148,-464.874C441.283,-464.874 442.22,-465.803 442.229,-466.938L442.229,-509.887C442.229,-509.892 442.229,-509.897 442.229,-509.903C442.229,-511.044 441.29,-511.984 440.148,-511.984C440.061,-511.984 439.974,-511.978 439.888,-511.967Z" style="fill:rgb(0,184,204);fill-rule:nonzero;"/>
            <path id="w" d="M455.657,-511.967C454.577,-511.883 453.735,-510.969 453.738,-509.887L453.738,-466.938C453.743,-466.492 453.891,-466.058 454.161,-465.703C454.372,-465.421 454.652,-465.197 454.974,-465.053C455.031,-465.025 454.973,-465.015 455.039,-464.988C455.818,-464.663 456.72,-464.844 457.315,-465.443L487.713,-495.841C488.106,-496.232 488.326,-496.763 488.326,-497.316C488.326,-497.96 488.028,-498.569 487.518,-498.963C478.608,-505.887 467.83,-510.492 456.079,-511.967C455.939,-511.982 455.797,-511.982 455.657,-511.967Z" style="fill:rgb(0,184,204);fill-rule:nonzero;"/>
            <path id="x" d="M398.435,-488.331C397.867,-488.268 397.35,-487.974 397.005,-487.518C390.073,-478.6 385.471,-467.809 384,-456.047C383.989,-455.96 383.984,-455.874 383.984,-455.787C383.984,-454.645 384.923,-453.706 386.065,-453.706C386.07,-453.706 386.075,-453.706 386.081,-453.706L429.029,-453.706C429.803,-453.7 430.519,-454.127 430.882,-454.811C430.881,-454.811 430.882,-454.841 430.882,-454.844C430.906,-454.897 430.928,-454.951 430.947,-455.006C430.956,-455.028 430.969,-455.013 430.98,-455.039C431.304,-455.818 431.123,-456.72 430.525,-457.315L400.126,-487.713C399.685,-488.165 399.063,-488.392 398.435,-488.331L398.435,-488.331Z" style="fill:rgb(0,184,204);fill-rule:nonzero;"/>
            <path id="y" d="M497.142,-488.299C496.66,-488.247 496.212,-488.028 495.874,-487.681L465.475,-457.282C465.165,-456.974 464.961,-456.576 464.89,-456.144C464.832,-455.771 464.877,-455.389 465.02,-455.039C465.028,-455.017 465.011,-455.029 465.02,-455.006C465.336,-454.226 466.096,-453.71 466.938,-453.706L509.887,-453.706C509.892,-453.706 509.897,-453.706 509.903,-453.706C511.044,-453.706 511.984,-454.645 511.984,-455.787C511.984,-455.874 511.978,-455.96 511.967,-456.047C510.499,-467.792 505.911,-478.574 498.995,-487.486C498.56,-488.058 497.858,-488.366 497.142,-488.299Z" style="fill:rgb(0,115,128);fill-rule:nonzero;"/>
            <path id="z" d="M385.886,-442.197C384.829,-442.089 384.015,-441.189 384.015,-440.126C384.015,-440.036 384.021,-439.945 384.033,-439.856C385.512,-428.118 390.087,-417.35 397.005,-408.449C397.399,-407.94 398.007,-407.641 398.651,-407.641C399.204,-407.641 399.736,-407.862 400.126,-408.254L430.492,-438.653C430.877,-439.042 431.093,-439.568 431.093,-440.116C431.093,-441.251 430.164,-442.187 429.029,-442.197L386.081,-442.197C386.016,-442.2 385.951,-442.2 385.886,-442.197Z" style="fill:rgb(0,184,204);fill-rule:nonzero;"/>
            <path id="_10" serif:id="10" d="M466.776,-442.197C465.715,-442.093 464.897,-441.191 464.897,-440.125C464.897,-439.573 465.117,-439.043 465.508,-438.653L495.874,-408.286C496.264,-407.894 496.795,-407.674 497.349,-407.674C497.993,-407.674 498.601,-407.972 498.995,-408.482C505.898,-417.376 510.457,-428.135 511.935,-439.856C511.946,-439.942 511.951,-440.029 511.951,-440.116C511.951,-441.251 511.022,-442.188 509.887,-442.197L466.971,-442.197C466.906,-442.2 466.841,-442.2 466.776,-442.197Z" style="fill:rgb(38,119,128);fill-rule:nonzero;"/>
            <path id="_11" serif:id="11" d="M455.624,-431.142C455.422,-431.117 455.225,-431.062 455.039,-430.98C454.94,-430.939 455.02,-430.924 454.941,-430.882C454.908,-430.872 454.876,-430.861 454.844,-430.85C454.576,-430.707 454.343,-430.507 454.161,-430.265C453.891,-429.909 453.743,-429.476 453.738,-429.029L453.738,-386.081C453.738,-386.075 453.738,-386.07 453.738,-386.065C453.738,-384.923 454.678,-383.984 455.819,-383.984C455.906,-383.984 455.993,-383.989 456.079,-384C467.829,-385.475 478.608,-390.08 487.518,-397.005C488.028,-397.399 488.326,-398.007 488.326,-398.651C488.326,-399.204 488.106,-399.736 487.713,-400.126L457.315,-430.525C456.874,-430.976 456.252,-431.203 455.624,-431.142L455.624,-431.142Z" style="fill:rgb(38,119,128);fill-rule:nonzero;"/>
            <path id="_12" serif:id="12" d="M440.083,-431.11C439.556,-431.089 439.056,-430.868 438.685,-430.492L408.287,-400.093C407.894,-399.703 407.674,-399.172 407.674,-398.619C407.674,-397.975 407.972,-397.366 408.482,-396.972C417.385,-390.063 428.155,-385.473 439.888,-384C439.974,-383.989 440.061,-383.984 440.148,-383.984C441.29,-383.984 442.229,-384.923 442.229,-386.065C442.229,-386.07 442.229,-386.075 442.229,-386.081L442.229,-429.029C442.229,-429.029 442.229,-429.03 442.229,-429.03C442.229,-430.172 441.29,-431.111 440.148,-431.111C440.126,-431.111 440.105,-431.111 440.083,-431.11L440.083,-431.11Z" style="fill:rgb(0,184,204);fill-rule:nonzero;"/>
        </g>
        <g id="N">
        </g>
        <g id="O">
        </g>
    </g>
</svg>
